<?xml version="1.0" standalone="no"?>
<!DOCTYPE svg PUBLIC "-//W3C//DTD SVG 20010904//EN"
 "http://www.w3.org/TR/2001/REC-SVG-20010904/DTD/svg10.dtd">
<svg version="1.0" xmlns="http://www.w3.org/2000/svg"
 width="512.000000pt" height="512.000000pt" viewBox="0 0 512.000000 512.000000"
 preserveAspectRatio="xMidYMid meet">

<g transform="translate(0.000000,512.000000) scale(0.100000,-0.100000)"
fill="#000000" stroke="none">
<path d="M1521 4756 c-6 -8 -17 -33 -24 -56 -7 -24 -24 -52 -37 -62 -25 -18
-28 -18 -72 -1 -40 14 -49 15 -63 3 -32 -27 3 -165 60 -232 14 -16 25 -33 25
-37 0 -4 -27 -3 -60 3 -73 12 -110 -1 -110 -39 0 -14 4 -25 10 -25 5 0 16 -13
25 -29 16 -32 17 -31 -60 -95 -39 -32 -27 -54 41 -75 52 -17 54 -21 43 -90 -6
-34 21 -48 64 -33 87 31 192 2 249 -70 37 -46 71 -49 76 -7 2 19 -8 37 -37 67
-58 59 -113 84 -198 90 -64 4 -73 7 -73 24 0 20 -36 62 -60 70 -11 3 -10 10 8
33 14 18 22 42 22 66 l0 39 55 -3 c44 -2 58 2 76 20 28 28 21 55 -30 120 -37
46 -61 91 -61 113 0 5 18 8 40 8 42 0 82 20 102 52 12 19 13 19 41 -8 23 -22
38 -27 78 -27 27 0 49 -4 49 -10 0 -5 -7 -43 -17 -83 -16 -67 -16 -74 0 -107
31 -65 88 -55 146 26 l29 40 14 -28 c10 -21 57 -57 75 -58 1 0 -3 -19 -9 -41
-10 -36 -9 -46 10 -77 l20 -36 -30 -10 c-17 -6 -49 -11 -70 -11 -28 0 -46 -7
-63 -25 -29 -28 -31 -45 -11 -83 31 -60 76 -78 100 -40 8 14 5 23 -17 46 l-28
29 50 6 c57 7 104 28 144 65 36 34 34 48 -8 73 -19 12 -35 26 -35 33 0 7 16
36 35 66 19 30 35 60 35 67 0 21 -31 31 -67 21 -55 -15 -68 -8 -68 36 0 79
-63 74 -142 -12 -29 -30 -53 -53 -53 -49 0 3 6 34 14 69 26 114 29 173 11 188
-13 11 -23 10 -59 -8 -24 -12 -50 -22 -59 -22 -23 0 -55 37 -62 71 -7 29 -29
59 -44 59 -5 0 -14 -6 -20 -14z"/>
<path d="M2283 4651 c-52 -13 -122 -60 -148 -99 -84 -128 -20 -292 114 -292
60 0 99 24 122 73 l19 42 0 -36 c0 -51 -22 -109 -85 -220 l-55 -97 -82 5
c-172 11 -294 -40 -433 -181 -52 -52 -106 -119 -128 -158 -37 -64 -41 -67 -88
-77 -28 -6 -51 -11 -53 -11 -2 0 -6 28 -9 63 -4 55 -1 68 25 115 34 63 34 97
-1 97 -19 0 -31 -13 -57 -60 -32 -57 -36 -60 -92 -76 -72 -20 -143 -51 -202
-88 -25 -16 -72 -37 -105 -46 -195 -55 -336 -213 -381 -425 -36 -171 13 -408
72 -348 15 15 15 21 0 86 -42 186 3 367 124 495 50 53 151 126 138 100 -74
-151 -92 -228 -85 -376 5 -110 14 -137 48 -137 48 0 212 63 281 109 126 82
194 183 227 335 l17 81 45 13 c28 8 78 12 139 9 79 -3 105 -8 153 -31 200 -96
313 -342 263 -574 -18 -85 -14 -104 22 -100 38 4 54 66 55 208 0 100 -3 125
-27 196 -15 45 -40 100 -55 123 -26 39 -27 46 -19 93 13 71 44 145 84 200 40
56 43 84 12 94 -17 5 -28 -1 -51 -27 -35 -42 -93 -162 -102 -211 l-7 -36 -45
34 c-77 59 -188 104 -255 104 -15 0 -28 2 -28 6 0 3 19 33 42 67 66 98 155
180 244 223 75 37 82 39 178 39 l101 0 1 -37 c2 -72 52 -102 174 -102 47 0
103 6 125 13 54 18 104 57 111 87 8 32 36 39 159 39 94 0 104 -2 176 -36 86
-41 185 -128 244 -214 39 -56 63 -67 85 -40 19 23 -29 96 -124 190 -123 122
-241 175 -385 175 -42 0 -101 -7 -131 -15 -62 -16 -62 -17 -85 59 -19 63 -19
90 1 178 47 208 -43 379 -211 401 -22 3 -54 2 -72 -2z m132 -90 c16 -9 43 -38
59 -64 39 -63 44 -132 21 -252 -21 -106 -13 -172 31 -262 14 -29 23 -57 19
-63 -10 -16 -105 -40 -154 -39 -65 1 -95 12 -100 34 -2 10 34 91 79 179 93
184 106 240 76 320 -30 78 -112 129 -179 112 -71 -17 -104 -88 -73 -154 15
-30 15 -34 2 -23 -24 20 -36 76 -25 117 29 102 150 150 244 95z m-1025 -970
c0 -114 -13 -182 -50 -257 -49 -100 -150 -181 -287 -231 -95 -34 -93 -36 -93
60 1 272 112 418 390 510 38 13 40 9 40 -82z"/>
<path d="M1557 4554 c-11 -11 -8 -183 4 -248 6 -32 8 -60 6 -62 -2 -3 -35 0
-72 6 -72 12 -100 8 -109 -15 -11 -31 5 -43 67 -49 120 -14 146 -24 169 -70
28 -55 91 -147 116 -169 11 -10 29 -17 39 -15 30 6 27 45 -7 84 -17 20 -42 54
-56 76 -30 48 -27 86 12 143 30 44 29 79 -3 83 -16 2 -29 -7 -50 -39 l-27 -41
-9 28 c-5 16 -12 88 -15 159 -7 130 -7 130 -32 133 -14 2 -29 0 -33 -4z"/>
<path d="M3333 4074 c-22 -58 32 -302 92 -411 l35 -63 -48 0 c-26 0 -78 -7
-117 -15 -266 -56 -457 -291 -454 -560 2 -129 30 -198 74 -181 13 5 16 13 11
39 -15 79 -18 195 -7 249 35 165 166 313 327 368 263 91 552 -55 635 -320 23
-74 28 -201 10 -266 -14 -52 -6 -74 25 -74 30 0 43 29 53 125 10 90 -2 189
-32 264 -29 71 -29 70 78 78 225 18 434 -144 475 -368 7 -35 14 -74 16 -87 4
-19 10 -23 32 -20 33 4 39 35 22 123 -53 277 -340 470 -613 413 l-68 -15 -74
74 c-57 58 -91 82 -158 113 -90 42 -117 69 -162 157 -50 101 -51 98 19 100 64
2 110 -17 66 -27 -28 -7 -45 -32 -37 -54 5 -12 20 -16 71 -16 48 0 65 -4 70
-15 3 -9 0 -17 -7 -19 -44 -14 -48 -17 -45 -38 3 -21 9 -23 63 -26 43 -2 66
-9 81 -23 28 -26 68 -22 72 7 2 11 -6 28 -18 39 -16 15 -20 30 -20 84 0 77 -8
94 -41 89 -19 -2 -25 -10 -27 -36 -5 -53 -22 -26 -22 36 0 69 -8 99 -26 106
-25 10 -44 -5 -44 -35 0 -34 -17 -39 -24 -6 -5 19 -13 137 -10 137 11 0 124
-45 166 -65 47 -24 59 -26 72 -16 26 22 18 40 -30 71 -92 58 -259 100 -396
100 -63 0 -80 -3 -85 -16z m224 -67 c7 -8 -22 -67 -32 -63 -30 11 -62 -42 -35
-59 18 -11 10 -25 -15 -25 -13 0 -28 -7 -33 -17 -7 -12 -14 1 -26 55 -9 39
-16 83 -16 98 l0 27 77 -7 c42 -3 78 -7 80 -9z"/>
<path d="M4032 4067 c-21 -24 -74 -152 -98 -237 -18 -59 -27 -120 -31 -201 -6
-113 -5 -117 16 -129 38 -20 51 2 51 88 0 99 19 211 32 188 5 -9 36 -30 68
-46 51 -26 80 -53 80 -75 0 -3 -14 2 -30 12 -23 13 -35 15 -48 7 -29 -19 -26
-43 8 -62 80 -44 120 -73 120 -87 0 -15 -2 -15 -22 -1 -30 21 -55 20 -67 -3
-14 -26 2 -43 72 -78 41 -20 62 -38 75 -63 10 -22 26 -36 40 -38 28 -4 37 18
23 59 -10 28 -7 38 20 86 32 55 32 79 3 90 -12 4 -25 -4 -44 -27 l-28 -34 -7
32 c-5 25 -1 42 19 76 30 51 33 81 10 90 -26 10 -31 7 -52 -26 l-21 -32 -6 27
c-6 21 0 42 23 85 23 43 28 61 21 75 -15 25 -36 21 -60 -13 l-22 -30 -19 30
c-10 17 -24 30 -32 30 -20 0 -39 -27 -32 -46 5 -12 2 -15 -11 -9 -39 16 -54
17 -68 5 -11 -9 -15 -9 -15 -1 0 13 56 160 68 179 7 10 29 -2 88 -46 142 -106
234 -221 282 -353 23 -65 26 -90 27 -198 0 -108 2 -125 18 -135 27 -17 43 12
51 92 26 259 -111 500 -388 686 -73 48 -96 55 -114 33z"/>
<path d="M2849 3744 c-14 -17 -15 -15 42 -100 14 -22 32 -57 41 -79 9 -22 22
-44 30 -49 23 -14 48 0 48 26 0 55 -101 218 -135 218 -7 0 -19 -7 -26 -16z"/>
<path d="M2461 3587 c-8 -10 -8 -44 1 -127 12 -119 0 -380 -23 -503 -11 -60
-3 -87 26 -87 25 0 36 30 50 136 30 239 27 540 -6 581 -15 17 -33 17 -48 0z"/>
<path d="M703 2726 c-136 -43 -230 -154 -248 -293 -6 -43 -3 -61 14 -96 28
-57 65 -77 156 -84 57 -4 76 -10 79 -22 3 -9 116 -389 251 -846 135 -456 252
-849 261 -872 18 -51 96 -125 150 -144 58 -21 2330 -21 2388 0 54 19 132 93
150 144 9 23 126 416 261 872 135 457 248 837 251 846 3 12 22 18 79 22 91 7
128 27 157 86 19 40 20 48 9 110 -23 122 -88 207 -200 260 l-56 26 -1830 2
c-1494 1 -1838 -1 -1872 -11z m3713 -73 c70 -24 147 -103 168 -173 21 -70 20
-103 -3 -131 l-19 -24 -2002 0 -2002 0 -20 25 c-41 50 0 180 79 250 84 74 -72
68 1939 69 1669 1 1814 0 1860 -16z m-3067 -615 c23 -117 44 -221 47 -231 5
-16 -9 -17 -243 -15 l-247 3 -48 160 c-26 88 -56 190 -67 228 l-19 67 267 0
268 0 42 -212z m571 195 c0 -10 9 -108 20 -218 11 -110 20 -206 20 -212 0 -10
-56 -13 -245 -13 l-245 0 -5 23 c-10 41 -85 421 -85 429 0 4 122 8 270 8 250
0 270 -1 270 -17z m610 -213 l0 -230 -250 0 c-198 0 -250 3 -250 13 0 7 -9
100 -20 207 -11 107 -20 204 -20 217 l0 23 270 0 270 0 0 -230z m600 208 c0
-13 -9 -113 -20 -223 -11 -110 -20 -203 -20 -207 0 -5 -112 -8 -250 -8 l-250
0 0 230 0 230 270 0 270 0 0 -22z m610 14 c0 -8 -75 -388 -85 -429 l-5 -23
-247 0 -246 0 6 53 c3 28 14 132 23 230 l18 177 268 0 c147 0 268 -4 268 -8z
m610 6 c-1 -2 -31 -104 -68 -228 l-68 -225 -248 -3 c-233 -2 -247 -1 -242 15
3 10 24 114 47 231 l42 212 268 0 c148 0 269 -1 269 -2z m-160 -534 c0 -3 -21
-74 -46 -157 -25 -84 -47 -160 -50 -169 -5 -17 -87 -18 -1534 -18 -1447 0
-1529 1 -1534 18 -3 9 -23 80 -46 157 -23 77 -43 148 -46 158 -5 16 77 17
1625 17 897 0 1631 -3 1631 -6z m-2649 -644 l46 -230 -200 2 -199 3 -68 228
-67 227 221 0 221 0 46 -230z m469 228 c1 -2 11 -105 23 -231 l23 -227 -200 2
-200 3 -43 210 c-23 116 -42 218 -43 228 0 16 17 17 220 17 121 0 220 -1 220
-2z m520 -228 l0 -230 -203 0 -203 0 -17 193 c-10 105 -21 209 -24 230 l-6 37
227 0 226 0 0 -230z m507 193 c-3 -21 -14 -125 -24 -230 l-17 -193 -203 0
-203 0 0 230 0 230 226 0 227 0 -6 -37z m513 20 c-1 -10 -20 -112 -43 -228
l-43 -210 -200 -3 -200 -2 22 217 c13 120 23 224 23 231 1 9 52 12 221 12 203
0 220 -1 220 -17z m450 -210 l-68 -228 -199 -3 -200 -2 46 230 46 230 221 0
221 0 -67 -227z m-93 -315 c-2 -7 -17 -56 -32 -108 -15 -52 -34 -108 -42 -124
-25 -48 -73 -85 -127 -96 -36 -8 -393 -10 -1176 -8 -1083 3 -1126 4 -1163 22
-54 27 -83 76 -123 208 -18 62 -34 114 -34 116 0 1 608 2 1351 2 1077 0 1350
-3 1346 -12z"/>
</g>
</svg>
